<svg width="1440" height="18" viewBox="0 0 1440 18" fill="none" xmlns="http://www.w3.org/2000/svg">
<path d="M0 8.86548C0 8.86548 9.12814 8.56001 22.8527 8.34183L33.9231 8.18912C37.8074 8.18912 384.289 8.18909 388.561 8.05818C392.834 7.92727 397.301 8.05818 401.509 8.05818H415.169H428.764C433.296 8.05818 437.698 8.05818 441.712 8.05818L454.077 8.18912L465.147 8.34183C478.872 8.56001 488 8.86548 488 8.86548V9.32364C488 9.32364 478.872 9.62912 465.147 9.82548L454.077 10H441.712C437.439 10 433.037 10 428.764 10H401.768C397.301 10 392.834 10 388.82 10C384.807 10 38.0663 10 34.182 10L23.1117 9.82548C9.3871 9.62912 0.258948 9.32364 0.258948 9.32364L0 8.86548Z" fill="url(#paint0_linear_20_105)"/>
<path d="M485.958 9.21598L496.221 5.28833L506.462 9.21598L496.221 13.1648L485.958 9.21598Z" fill="url(#paint1_linear_20_105)"/>
<path d="M508.067 9.00463C508.067 9.00463 511.065 8.70899 515.521 8.49783L519.132 8.35003C520.42 8.35003 600.409 8.35 601.803 8.2233C603.196 8.0966 604.653 8.2233 606.026 8.2233H610.481H614.916C616.394 8.2233 617.83 8.2233 619.139 8.2233L623.172 8.35003L626.783 8.49783C631.26 8.70899 634.237 9.00463 634.237 9.00463V9.44806C634.237 9.44806 631.26 9.74371 626.783 9.93376L623.172 10.1027H619.139C617.745 10.1027 616.31 10.1027 614.916 10.1027H606.026C604.569 10.1027 603.112 10.1027 601.803 10.1027C600.493 10.1027 520.42 10.1027 519.132 10.1027L515.521 9.93376C511.065 9.74371 508.067 9.44806 508.067 9.44806V9.00463Z" fill="url(#paint2_linear_20_105)"/>
<path d="M632.02 9.21598L642.283 5.28833L652.545 9.21598L642.283 13.1648L632.02 9.21598Z" fill="url(#paint3_linear_20_105)"/>
<path d="M508.574 9.21564C508.574 9.63329 508.45 10.0416 508.218 10.3888C507.986 10.7361 507.656 11.0067 507.27 11.1665C506.884 11.3264 506.46 11.3682 506.05 11.2867C505.641 11.2052 505.264 11.0041 504.969 10.7088C504.674 10.4135 504.473 10.0372 504.391 9.62762C504.31 9.218 504.352 8.79342 504.511 8.40757C504.671 8.02172 504.942 7.69192 505.289 7.45989C505.636 7.22786 506.045 7.104 506.462 7.104C507.022 7.104 507.559 7.32648 507.955 7.72249C508.351 8.1185 508.574 8.6556 508.574 9.21564Z" fill="url(#paint4_linear_20_105)"/>
<path d="M682.362 8.20202H686.881C688.359 8.20202 689.816 8.20202 691.231 8.20202H693.765H695.306L698.959 8.34985C701.958 8.49766 704.281 8.66658 705.526 8.79327L704.766 9.0678L705.526 9.36343C704.281 9.36343 701.958 9.65904 698.959 9.80685L695.306 9.95468H693.765C692.941 9.95468 692.096 9.95468 691.231 9.95468C689.816 9.95468 688.359 9.95468 686.881 9.95468H677.864C676.386 9.95468 674.908 9.95468 673.493 9.95468H669.417L665.785 9.80685C662.428 9.63792 659.873 9.42677 658.796 9.32118H658.226V8.89886H658.796C659.873 8.77216 662.428 8.56101 665.785 8.4132L669.417 8.26537L673.493 8.13867C674.908 8.13867 676.386 8.13867 677.864 8.13867L682.362 8.20202Z" fill="url(#paint5_linear_20_105)"/>
<path d="M693.701 8.20196L691.294 9.13109L693.701 10.0602L714.311 18L736.209 9.55341L737.349 9.10995L736.209 8.66653L714.311 0.219971L693.701 8.20196ZM723.94 9.13109L714.311 12.8476L705.463 9.42672L704.703 9.13109L705.463 8.85657L714.311 5.43572L723.94 9.13109Z" fill="url(#paint6_linear_20_105)"/>
<path d="M654.636 9.21564C654.636 9.63329 654.512 10.0416 654.28 10.3888C654.048 10.7361 653.718 11.0067 653.332 11.1665C652.946 11.3264 652.522 11.3682 652.112 11.2867C651.703 11.2052 651.326 11.0041 651.031 10.7088C650.736 10.4135 650.535 10.0372 650.453 9.62762C650.372 9.218 650.414 8.79342 650.573 8.40757C650.733 8.02172 651.004 7.69192 651.351 7.45989C651.698 7.22786 652.107 7.104 652.524 7.104C653.084 7.104 653.621 7.32648 654.017 7.72249C654.413 8.1185 654.636 8.6556 654.636 9.21564Z" fill="url(#paint7_linear_20_105)"/>
<path d="M658.817 9.21564C658.817 9.63329 658.693 10.0416 658.461 10.3888C658.229 10.7361 657.899 11.0067 657.513 11.1665C657.127 11.3264 656.703 11.3682 656.293 11.2867C655.884 11.2052 655.507 11.0041 655.212 10.7088C654.917 10.4135 654.716 10.0372 654.634 9.62762C654.553 9.218 654.595 8.79342 654.754 8.40757C654.914 8.02172 655.185 7.69192 655.532 7.45989C655.879 7.22786 656.288 7.104 656.705 7.104C657.265 7.104 657.802 7.32648 658.198 7.72249C658.594 8.1185 658.817 8.6556 658.817 9.21564Z" fill="url(#paint8_linear_20_105)"/>
<path d="M1440 9.32364C1440 9.32364 1430.6 9.62912 1416.47 9.82548L1405.08 10H1392.41C1387.95 10 1383.41 10 1379.08 10H750.384C745.718 10 741.186 10 737.054 10C732.922 10 983.655 10 979.389 10L967.992 9.82548C953.929 9.62912 944.532 9.32364 944.532 9.32364V8.86548C944.532 8.86548 953.929 8.56001 967.992 8.34183L979.389 8.18912C983.455 8.18912 732.788 8.18909 737.054 8.05818C741.319 7.92727 745.985 8.05818 750.384 8.05818H1364.82H1378.88C1383.48 8.05818 1388.01 8.05818 1392.21 8.05818L1404.88 8.18912L1416.27 8.34183C1430.4 8.56001 1439.8 8.86548 1439.8 8.86548L1440 9.32364Z" fill="url(#paint9_linear_20_105)"/>
<path d="M956.305 9.21598L946.042 13.1648L935.78 9.21598L946.042 5.28833L956.305 9.21598Z" fill="url(#paint10_linear_20_105)"/>
<path d="M934.175 9.44806C934.175 9.44806 931.197 9.74371 926.721 9.93376L923.11 10.1027H919.076C917.683 10.1027 916.247 10.1027 914.853 10.1027H905.963C904.506 10.1027 903.049 10.1027 901.74 10.1027C900.431 10.1027 818.182 10.1027 816.915 10.1027L813.304 9.93376C808.828 9.74371 805.85 9.44806 805.85 9.44806V9.00463C805.85 9.00463 808.828 8.70899 813.304 8.49783L816.915 8.35003C818.182 8.35003 900.346 8.35 901.74 8.2233C903.134 8.0966 904.591 8.2233 905.963 8.2233H910.419H914.853C916.331 8.2233 917.767 8.2233 919.076 8.2233L923.11 8.35003L926.721 8.49783C931.197 8.70899 934.175 9.00463 934.175 9.00463V9.44806Z" fill="url(#paint11_linear_20_105)"/>
<path d="M808.068 9.21598L797.805 13.1648L787.542 9.21598L797.805 5.28833L808.068 9.21598Z" fill="url(#paint12_linear_20_105)"/>
<path d="M933.689 9.21562C933.689 8.79798 933.813 8.38971 934.045 8.04245C934.277 7.6952 934.607 7.42456 934.993 7.26473C935.378 7.10491 935.803 7.0631 936.213 7.14458C936.622 7.22606 936.999 7.42715 937.294 7.72247C937.589 8.01779 937.79 8.39406 937.872 8.80368C937.953 9.21329 937.911 9.63788 937.752 10.0237C937.592 10.4096 937.321 10.7394 936.974 10.9714C936.627 11.2034 936.218 11.3273 935.801 11.3273C935.523 11.3273 935.249 11.2726 934.993 11.1665C934.736 11.0604 934.504 10.9049 934.308 10.7088C934.111 10.5127 933.956 10.2799 933.85 10.0237C933.744 9.76753 933.689 9.49293 933.689 9.21562Z" fill="url(#paint13_linear_20_105)"/>
<path d="M781.524 9.4479C781.524 9.4479 778.526 9.74355 774.028 9.9336L770.396 10.1025H766.342C764.948 10.1025 763.491 10.1025 762.013 10.1025H753.08C751.602 10.1025 750.145 10.1025 748.731 10.1025H744.697L741.065 9.9336C736.567 9.74355 733.569 9.4479 733.569 9.4479V9.00447C733.569 9.00447 736.567 8.70883 741.065 8.49767L744.697 8.34987L748.731 8.22314C750.145 8.22314 751.602 8.22314 753.08 8.22314H757.536H762.013C763.491 8.22314 764.948 8.22314 766.342 8.22314L770.396 8.34987L774.028 8.49767C778.526 8.70883 781.524 9.00447 781.524 9.00447V9.4479Z" fill="url(#paint14_linear_20_105)"/>
<path d="M785.452 9.21562C785.452 8.79798 785.576 8.38971 785.808 8.04245C786.04 7.6952 786.37 7.42456 786.756 7.26473C787.141 7.10491 787.566 7.0631 787.976 7.14458C788.385 7.22606 788.761 7.42715 789.057 7.72247C789.352 8.01779 789.553 8.39406 789.635 8.80368C789.716 9.21329 789.674 9.63788 789.515 10.0237C789.355 10.4096 789.084 10.7394 788.737 10.9714C788.39 11.2034 787.981 11.3273 787.564 11.3273C787.286 11.3273 787.012 11.2726 786.756 11.1665C786.499 11.0604 786.267 10.9049 786.07 10.7088C785.874 10.5127 785.719 10.2799 785.613 10.0237C785.507 9.76753 785.452 9.49293 785.452 9.21562Z" fill="url(#paint15_linear_20_105)"/>
<path d="M781.25 9.21562C781.25 8.79798 781.374 8.38971 781.606 8.04245C781.838 7.6952 782.168 7.42456 782.553 7.26473C782.939 7.10491 783.364 7.0631 783.773 7.14458C784.183 7.22606 784.559 7.42715 784.855 7.72247C785.15 8.01779 785.351 8.39406 785.432 8.80368C785.514 9.21329 785.472 9.63788 785.312 10.0237C785.153 10.4096 784.882 10.7394 784.535 10.9714C784.187 11.2034 783.779 11.3273 783.361 11.3273C783.084 11.3273 782.81 11.2726 782.553 11.1665C782.297 11.0604 782.064 10.9049 781.868 10.7088C781.672 10.5127 781.517 10.2799 781.411 10.0237C781.304 9.76753 781.25 9.49293 781.25 9.21562Z" fill="url(#paint16_linear_20_105)"/>
<defs>
<linearGradient id="paint0_linear_20_105" x1="244.259" y1="10.2182" x2="244.259" y2="7.94909" gradientUnits="userSpaceOnUse">
<stop stop-color="#F4DE8B"/>
<stop offset="0.39" stop-color="#F4D662"/>
<stop offset="1" stop-color="#B2782A"/>
</linearGradient>
<linearGradient id="paint1_linear_20_105" x1="496.221" y1="13.1648" x2="496.221" y2="5.26721" gradientUnits="userSpaceOnUse">
<stop stop-color="#F4DE8B"/>
<stop offset="0.39" stop-color="#F4D662"/>
<stop offset="1" stop-color="#B2782A"/>
</linearGradient>
<linearGradient id="paint2_linear_20_105" x1="571.247" y1="10.3138" x2="571.247" y2="8.11772" gradientUnits="userSpaceOnUse">
<stop stop-color="#F4DE8B"/>
<stop offset="0.39" stop-color="#F4D662"/>
<stop offset="1" stop-color="#B2782A"/>
</linearGradient>
<linearGradient id="paint3_linear_20_105" x1="642.283" y1="13.1648" x2="642.283" y2="5.26721" gradientUnits="userSpaceOnUse">
<stop stop-color="#F4DE8B"/>
<stop offset="0.39" stop-color="#F4D662"/>
<stop offset="1" stop-color="#B2782A"/>
</linearGradient>
<linearGradient id="paint4_linear_20_105" x1="506.483" y1="11.3062" x2="506.483" y2="7.12512" gradientUnits="userSpaceOnUse">
<stop stop-color="#F4DE8B"/>
<stop offset="0.39" stop-color="#F4D662"/>
<stop offset="1" stop-color="#B2782A"/>
</linearGradient>
<linearGradient id="paint5_linear_20_105" x1="681.876" y1="10.3137" x2="681.876" y2="8.11756" gradientUnits="userSpaceOnUse">
<stop stop-color="#F4DE8B"/>
<stop offset="0.39" stop-color="#F4D662"/>
<stop offset="1" stop-color="#B2782A"/>
</linearGradient>
<linearGradient id="paint6_linear_20_105" x1="714.395" y1="18.0845" x2="714.395" y2="0.367785" gradientUnits="userSpaceOnUse">
<stop stop-color="#F4DE8B"/>
<stop offset="0.39" stop-color="#F4D662"/>
<stop offset="1" stop-color="#B2782A"/>
</linearGradient>
<linearGradient id="paint7_linear_20_105" x1="652.545" y1="11.3062" x2="652.545" y2="7.12512" gradientUnits="userSpaceOnUse">
<stop stop-color="#F4DE8B"/>
<stop offset="0.39" stop-color="#F4D662"/>
<stop offset="1" stop-color="#B2782A"/>
</linearGradient>
<linearGradient id="paint8_linear_20_105" x1="656.747" y1="11.3062" x2="656.747" y2="7.12512" gradientUnits="userSpaceOnUse">
<stop stop-color="#F4DE8B"/>
<stop offset="0.39" stop-color="#F4D662"/>
<stop offset="1" stop-color="#B2782A"/>
</linearGradient>
<linearGradient id="paint9_linear_20_105" x1="1088.36" y1="10.2182" x2="1088.36" y2="7.94909" gradientUnits="userSpaceOnUse">
<stop stop-color="#F4DE8B"/>
<stop offset="0.39" stop-color="#F4D662"/>
<stop offset="1" stop-color="#B2782A"/>
</linearGradient>
<linearGradient id="paint10_linear_20_105" x1="946.042" y1="13.1648" x2="946.042" y2="5.26721" gradientUnits="userSpaceOnUse">
<stop stop-color="#F4DE8B"/>
<stop offset="0.39" stop-color="#F4D662"/>
<stop offset="1" stop-color="#B2782A"/>
</linearGradient>
<linearGradient id="paint11_linear_20_105" x1="869.939" y1="10.3138" x2="869.939" y2="8.11772" gradientUnits="userSpaceOnUse">
<stop stop-color="#F4DE8B"/>
<stop offset="0.39" stop-color="#F4D662"/>
<stop offset="1" stop-color="#B2782A"/>
</linearGradient>
<linearGradient id="paint12_linear_20_105" x1="797.805" y1="13.1648" x2="797.805" y2="5.26721" gradientUnits="userSpaceOnUse">
<stop stop-color="#F4DE8B"/>
<stop offset="0.39" stop-color="#F4D662"/>
<stop offset="1" stop-color="#B2782A"/>
</linearGradient>
<linearGradient id="paint13_linear_20_105" x1="935.78" y1="11.3062" x2="935.78" y2="7.12512" gradientUnits="userSpaceOnUse">
<stop stop-color="#F4DE8B"/>
<stop offset="0.39" stop-color="#F4D662"/>
<stop offset="1" stop-color="#B2782A"/>
</linearGradient>
<linearGradient id="paint14_linear_20_105" x1="757.557" y1="10.3137" x2="757.557" y2="8.11756" gradientUnits="userSpaceOnUse">
<stop stop-color="#F4DE8B"/>
<stop offset="0.39" stop-color="#F4D662"/>
<stop offset="1" stop-color="#B2782A"/>
</linearGradient>
<linearGradient id="paint15_linear_20_105" x1="787.542" y1="11.3062" x2="787.542" y2="7.12512" gradientUnits="userSpaceOnUse">
<stop stop-color="#F4DE8B"/>
<stop offset="0.39" stop-color="#F4D662"/>
<stop offset="1" stop-color="#B2782A"/>
</linearGradient>
<linearGradient id="paint16_linear_20_105" x1="783.361" y1="11.3062" x2="783.361" y2="7.12512" gradientUnits="userSpaceOnUse">
<stop stop-color="#F4DE8B"/>
<stop offset="0.39" stop-color="#F4D662"/>
<stop offset="1" stop-color="#B2782A"/>
</linearGradient>
</defs>
</svg>
