<svg width="31" height="28" viewBox="0 0 31 28" fill="none" xmlns="http://www.w3.org/2000/svg">
<path d="M23.3846 24.2083H19.6154C19.3655 24.2083 19.1258 24.1162 18.9491 23.952C18.7724 23.788 18.6731 23.5654 18.6731 23.3333C18.6731 23.1013 18.7724 22.8787 18.9491 22.7145C19.1258 22.5505 19.3655 22.4583 19.6154 22.4583H23.3846C23.7577 22.4884 24.1289 22.384 24.4213 22.1668C24.7138 21.9497 24.9049 21.6362 24.9551 21.2917V6.7433C24.9049 6.39873 24.7138 6.08533 24.4213 5.8681C24.1289 5.65089 23.7577 5.54651 23.3846 5.57664H19.6154C19.3655 5.57664 19.1258 5.48446 18.9491 5.32035C18.7724 5.15626 18.6731 4.93371 18.6731 4.70164C18.6731 4.46957 18.7724 4.24702 18.9491 4.08292C19.1258 3.91883 19.3655 3.82664 19.6154 3.82664H23.3846C23.8204 3.80943 24.2553 3.87216 24.6649 4.01125C25.0744 4.15033 25.4504 4.36303 25.7713 4.63719C26.0922 4.91134 26.3518 5.24157 26.5351 5.60896C26.7185 5.97636 26.822 6.37373 26.8398 6.7783V21.2567C26.822 21.6613 26.7185 22.0586 26.5351 22.426C26.3518 22.7934 26.0922 23.1236 25.7713 23.3977C25.4504 23.6719 25.0744 23.8846 24.6649 24.0237C24.2553 24.1628 23.8204 24.2255 23.3846 24.2083Z" fill="#F1F1F1"/>
<path d="M14.5897 19.5417C14.466 19.5421 14.3432 19.5197 14.2289 19.4756C14.1146 19.4316 14.0109 19.3668 13.9238 19.285C13.7474 19.1208 13.6483 18.8985 13.6483 18.6667C13.6483 18.4347 13.7474 18.2124 13.9238 18.0483L18.2836 14L13.9238 9.95163C13.7574 9.78575 13.6668 9.56637 13.6711 9.33969C13.6755 9.11301 13.7743 8.89672 13.947 8.73641C14.1196 8.57608 14.3525 8.48426 14.5967 8.48025C14.8408 8.47626 15.077 8.5604 15.2556 8.71496L20.2813 13.3817C20.4578 13.5457 20.5569 13.7681 20.5569 14C20.5569 14.2318 20.4578 14.4542 20.2813 14.6183L15.2556 19.285C15.1687 19.3668 15.0649 19.4316 14.9506 19.4756C14.8363 19.5197 14.7136 19.5421 14.5897 19.5417Z" fill="#F1F1F1"/>
<path d="M19.6154 14.875H5.79485C5.54493 14.875 5.30525 14.7828 5.12853 14.6187C4.95182 14.4547 4.85254 14.232 4.85254 14C4.85254 13.7679 4.95182 13.5453 5.12853 13.3813C5.30525 13.2172 5.54493 13.125 5.79485 13.125H19.6154C19.8653 13.125 20.105 13.2172 20.2816 13.3813C20.4584 13.5453 20.5577 13.7679 20.5577 14C20.5577 14.232 20.4584 14.4547 20.2816 14.6187C20.105 14.7828 19.8653 14.875 19.6154 14.875Z" fill="#F1F1F1"/>
</svg>
