<svg width="21" height="20" viewBox="0 0 21 20" fill="none" xmlns="http://www.w3.org/2000/svg">
<path d="M17.4889 3.37329C16.5521 2.51162 15.4371 1.82859 14.2088 1.36392C12.9803 0.899247 11.663 0.662227 10.3333 0.666625C8.55579 0.668212 6.80981 1.09619 5.27038 1.9077C3.73095 2.71921 2.45208 3.88577 1.5618 5.29054C0.671518 6.69533 0.201116 8.28905 0.197666 9.912C0.194229 11.5351 0.657883 13.1304 1.54219 14.5383L0.111084 19.3333L5.47775 18.05C6.95965 18.8027 8.62479 19.2039 10.3205 19.2166C13.0163 19.2168 15.6029 18.2446 17.5172 16.5118C19.4317 14.7792 20.5191 12.4262 20.5427 9.96497C20.5338 8.73682 20.2593 7.52237 19.7353 6.39124C19.2113 5.2601 18.4478 4.23453 17.4889 3.37329ZM10.3333 17.6183C8.82259 17.6192 7.33949 17.2485 6.03997 16.545L5.73331 16.37L2.55164 17.14L3.39497 14.305L3.19053 14.0133C2.10346 12.4111 1.69775 10.5005 2.05027 8.64337C2.40278 6.78633 3.48903 5.11181 5.10323 3.93706C6.71745 2.7623 8.74746 2.1689 10.8088 2.26926C12.8701 2.36962 14.8196 3.15678 16.2877 4.48163C17.8926 5.91451 18.8114 7.86905 18.8433 9.9183C18.8231 11.9669 17.9176 13.9252 16.3238 15.3673C14.7301 16.8093 12.5771 17.6184 10.3333 17.6183ZM14.9461 11.855C14.6905 11.7383 13.4511 11.1783 13.2211 11.1083C12.9911 11.0383 12.8122 10.9916 12.6461 11.225C12.3962 11.5378 12.1273 11.8376 11.8411 12.1233C11.7005 12.2866 11.5472 12.2983 11.2916 12.1233C9.83459 11.5976 8.6207 10.6293 7.85442 9.38164C7.58608 8.9733 8.10997 8.99664 8.59553 8.12164C8.63143 8.05852 8.65009 7.98852 8.65009 7.91747C8.65009 7.84642 8.63143 7.77642 8.59553 7.7133C8.59553 7.59663 8.02053 6.45329 7.81608 5.99829C7.61164 5.54329 7.40719 5.61329 7.24108 5.60163H6.74275C6.61363 5.60343 6.48643 5.6304 6.36964 5.68069C6.25285 5.73099 6.14917 5.80347 6.06553 5.89329C5.77882 6.14784 5.5552 6.45553 5.40972 6.79564C5.26425 7.13575 5.20031 7.50038 5.22219 7.86497C5.30231 8.73775 5.6623 9.56959 6.25719 10.2566C7.34612 11.7451 8.83843 12.9508 10.5889 13.7566C11.5069 14.2459 12.5739 14.4506 13.63 14.34C13.9816 14.2763 14.3147 14.1457 14.6075 13.9567C14.9003 13.7678 15.1463 13.5247 15.3294 13.2433C15.4991 12.8998 15.5525 12.518 15.4827 12.1466C15.3678 12.03 15.2016 11.9716 14.9461 11.855Z" fill="#F4F4F4"/>
</svg>
